<svg xmlns="http://www.w3.org/2000/svg" width="201" height="222" fill="none"><path fill="#fff" d="M138.052 170.435c-.256.128-.64.255-.896.255s-.512 0-.768-.127l-15.225-6.782-27.38 26.742v27.127h104.274c0-24.056-11.515-45.808-30.194-61.418l-51.818 37.746-2.047-2.815 51.05-37.234c-7.421-5.758-15.865-10.493-25.077-14.203l-1.152 29.301c0 .64-.384 1.152-.767 1.408ZM90.712 188.348l2.943-2.815-18.808-20.984-13.306 5.886c-.256 0-.512.128-.768.128s-.64 0-.895-.256c-.512-.256-.768-.768-.896-1.408l-1.535-29.045c-8.7 3.454-16.76 8.061-23.926 13.435l47.468 37.746-2.175 2.815-48.107-38.258C11.899 171.074 0 193.082 0 217.522h90.2v-27.894c0-.512.256-.896.512-1.28Z"/><path fill="#DB0032" d="m75.359 162.373 20.727 23.16 24.693-24.055 16.377 7.293 1.023-29.941c-12.026-4.478-25.205-6.91-39.15-6.91-13.946 0-27.38 2.56-39.535 7.166l1.407 29.813 14.458-6.526Z"/><path fill="#C02134" d="M165.176 153.929c.767.511 1.407 1.151 2.175 1.663-.64-.64-1.408-1.152-2.175-1.663Z"/><path fill="#DB0032" d="M102.739 203.703c-1.919 0-3.327 1.535-3.327 3.326 0 1.792 1.536 3.327 3.327 3.327s3.327-1.535 3.327-3.327c0-1.791-1.536-3.326-3.327-3.326ZM116.173 193.85l51.817-37.746c-.255-.128-.383-.384-.639-.512-.64-.64-1.408-1.152-2.175-1.663l-51.05 37.234 2.047 2.815v-.128ZM81.117 191.035l-47.468-37.746c-.895.767-1.919 1.407-2.815 2.175l48.107 38.258 2.175-2.815v.128Z"/><path fill="#DB0032" d="m121.163 163.653 15.225 6.782c.256 0 .512.128.768.128s.64 0 .896-.256c.511-.256.767-.896.767-1.408l1.152-29.301c-1.152-.512-2.303-.896-3.455-1.28l-1.023 27.766-23.414-10.62-1.407 3.199 7.036 3.327-21.494 20.984-17.912-19.961 9.98-4.222-1.408-3.199-24.31 10.748-1.407-27.638c-1.151.384-2.303.896-3.454 1.28l1.535 29.173c0 .64.384 1.152.896 1.408.256.127.64.255.895.255.256 0 .512 0 .768-.128l13.306-5.885 18.808 20.984-2.943 2.815c-.384.384-.512.768-.512 1.28v27.894h3.583v-27.127l27.38-26.742-.256-.256Z"/><path fill="#EF7A93" d="M99.284 154.056c29.396 0 53.225-34.486 53.225-77.028C152.509 34.487 128.68 0 99.285 0 69.888 0 46.06 34.487 46.06 77.028c0 42.542 23.83 77.028 53.224 77.028Z"/><path fill="#DB0032" d="M109.52 30.581c0-3.455.64-6.654 1.663-9.724H62.82c-4.094 5.63-7.548 12.155-10.363 19.32h58.598c-1.023-3.07-1.663-6.27-1.663-9.724l.128.128Z"/><path fill="#EF7A93" d="M47.083 92.255c-5.757 0-10.491-6.782-10.491-15.227s4.606-15.226 10.491-15.226v30.453ZM151.23 92.255c5.757 0 10.491-6.782 10.491-15.227s-4.606-15.226-10.491-15.226v30.453Z"/><path fill="#C7C6C5" d="M138.052 59.243c15.828 0 28.659-12.833 28.659-28.662 0-15.83-12.831-28.662-28.659-28.662-15.829 0-28.66 12.833-28.66 28.662 0 15.83 12.831 28.662 28.66 28.662Z"/><mask id="a" width="58" height="59" x="109" y="1" maskUnits="userSpaceOnUse" style="mask-type:luminance"><path fill="#fff" d="M138.052 59.243c15.828 0 28.659-12.833 28.659-28.662 0-15.83-12.831-28.662-28.659-28.662-15.829 0-28.66 12.833-28.66 28.662 0 15.83 12.831 28.662 28.66 28.662Z"/></mask><g mask="url(#a)"><path fill="url(#b)" d="m168.246 48.75-62.948-36.466v56.3h63.204l-.256-19.834Z"/></g><path fill="#9E3159" d="M138.051 40.306c5.371 0 9.724-4.354 9.724-9.725 0-5.37-4.353-9.724-9.724-9.724-5.37 0-9.723 4.353-9.723 9.724 0 5.37 4.353 9.725 9.723 9.725Z"/><mask id="c" width="199" height="79" x="0" y="139" maskUnits="userSpaceOnUse" style="mask-type:luminance"><path fill="#fff" d="m138.947 168.899 1.152-29.301a100.237 100.237 0 0 1 25.077 14.203l-51.05 37.234 2.047 2.815 51.817-37.746c18.552 15.482 30.195 37.234 30.195 61.418H93.911v-27.127l27.38-26.742 15.225 6.782c.256 0 .512.128.768.128s.64 0 .896-.256c.511-.256.767-.896.767-1.408ZM90.84 188.348l2.943-2.815-18.808-20.984-13.306 5.886c-.256 0-.512.128-.768.128s-.64 0-.895-.256c-.512-.256-.768-.768-.896-1.408l-1.535-29.045c-8.7 3.454-16.76 8.061-23.926 13.435l47.468 37.746-2.176 2.815-48.107-38.258C11.9 171.074 0 193.082 0 217.522h90.2v-27.894c0-.512.256-.896.512-1.28h.128Z"/></mask><g mask="url(#c)"><path fill="url(#d)" d="M30.706 222 201 123.731V222H30.707Z" style="mix-blend-mode:multiply"/></g><defs><linearGradient id="b" x1="105.298" x2="168.502" y1="40.433" y2="40.433" gradientUnits="userSpaceOnUse"><stop stop-color="#fff" stop-opacity=".8"/><stop offset=".1" stop-color="#fff" stop-opacity=".8"/><stop offset=".3" stop-color="#fff" stop-opacity=".7"/><stop offset=".5" stop-color="#fff" stop-opacity=".5"/><stop offset=".8" stop-color="#fff" stop-opacity=".3"/><stop offset="1" stop-color="#fff" stop-opacity=".2"/></linearGradient><linearGradient id="d" x1="178.354" x2="73.056" y1="172.866" y2="172.866" gradientUnits="userSpaceOnUse"><stop stop-color="#C7C6C5" stop-opacity=".5"/><stop offset="1" stop-color="#C7C6C5" stop-opacity="0"/></linearGradient></defs></svg>